<?xml version="1.0" encoding="UTF-8" standalone="no"?>
<!-- Created with Inkscape (http://www.inkscape.org/) -->

<svg
   xmlns:dc="http://purl.org/dc/elements/1.1/"
   xmlns:cc="http://creativecommons.org/ns#"
   xmlns:rdf="http://www.w3.org/1999/02/22-rdf-syntax-ns#"
   xmlns:svg="http://www.w3.org/2000/svg"
   xmlns="http://www.w3.org/2000/svg"
   xmlns:sodipodi="http://sodipodi.sourceforge.net/DTD/sodipodi-0.dtd"
   xmlns:inkscape="http://www.inkscape.org/namespaces/inkscape"
   width="982.58179"
   height="257.22968"
   viewBox="0 0 259.97477 68.058682"
   version="1.1"
   id="svg8"
   inkscape:version="0.92.2 (5c3e80d, 2017-08-06)"
   sodipodi:docname="horizontal_color.svg">
  <defs
     id="defs2" />
  <sodipodi:namedview
     id="base"
     pagecolor="#ffffff"
     bordercolor="#666666"
     borderopacity="1.0"
     inkscape:pageopacity="0.0"
     inkscape:pageshadow="2"
     inkscape:zoom="0.505625"
     inkscape:cx="399.21368"
     inkscape:cy="196.5373"
     inkscape:document-units="mm"
     inkscape:current-layer="layer1"
     inkscape:document-rotation="0"
     showgrid="false"
     borderlayer="true"
     inkscape:showpageshadow="false"
     units="px"
     inkscape:pagecheckerboard="false"
     showguides="true"
     inkscape:window-width="1366"
     inkscape:window-height="715"
     inkscape:window-x="0"
     inkscape:window-y="0"
     inkscape:window-maximized="1"
     fit-margin-top="0"
     fit-margin-left="0"
     fit-margin-right="0"
     fit-margin-bottom="0">
    <inkscape:grid
       type="xygrid"
       id="grid10"
       originx="-86.015595"
       originy="-83.217481" />
  </sodipodi:namedview>
  <metadata
     id="metadata5">
    <rdf:RDF>
      <cc:Work
         rdf:about="">
        <dc:format>image/svg+xml</dc:format>
        <dc:type
           rdf:resource="http://purl.org/dc/dcmitype/StillImage" />
        <dc:title></dc:title>
      </cc:Work>
    </rdf:RDF>
  </metadata>
  <g
     inkscape:label="Layer 1"
     inkscape:groupmode="layer"
     id="layer1"
     transform="translate(-86.015593,-145.72384)">
    <g
       transform="matrix(1.5717942,0,0,1.5717942,18.114084,-164.0768)"
       id="g89912">
      <path
         id="path89898"
         d="m 111.4,216.7 c 0,1.4 -0.2,2.6 -0.5,3.8 -0.4,1.2 -0.9,2.1 -1.5,3 -0.7,0.8 -1.5,1.5 -2.5,1.9 -1,0.5 -2.1,0.7 -3.4,0.7 -0.9,0 -1.6,-0.1 -2.3,-0.3 -0.7,-0.2 -1.3,-0.4 -1.8,-0.7 v 7 h -4.2 v -23.9 c 0.9,-0.2 1.9,-0.4 3.1,-0.7 1.2,-0.2 2.6,-0.3 3.9,-0.3 1.4,0 2.7,0.2 3.8,0.7 1.1,0.4 2.1,1.1 2.9,1.9 0.8,0.8 1.4,1.8 1.8,3 0.5,1.2 0.7,2.5 0.7,3.9 z m -4.3,0.1 c 0,-1.9 -0.4,-3.3 -1.3,-4.3 -0.8,-1 -2.2,-1.6 -4.1,-1.6 -0.4,0 -0.8,0 -1.2,0.1 -0.4,0 -0.8,0.1 -1.3,0.2 v 10.3 c 0.4,0.3 0.9,0.5 1.5,0.7 0.6,0.2 1.3,0.3 2,0.3 1.5,0 2.6,-0.5 3.3,-1.6 0.8,-0.9 1.1,-2.3 1.1,-4.1 z"
         class="st0"
         inkscape:connector-curvature="0"
         style="fill:#635742" />
      <path
         id="path89900"
         d="m 124.3,211.5 c -0.3,-0.1 -0.8,-0.2 -1.4,-0.4 -0.6,-0.1 -1.3,-0.2 -2.1,-0.2 -0.5,0 -1,0 -1.5,0.1 -0.5,0.1 -0.9,0.2 -1.1,0.2 v 14.5 H 114 v -17.2 c 0.8,-0.3 1.8,-0.6 3,-0.8 1.2,-0.3 2.5,-0.4 4,-0.4 0.3,0 0.6,0 1,0.1 0.4,0.1 0.7,0.1 1.1,0.1 0.4,0.1 0.7,0.1 1.1,0.2 0.3,0.1 0.6,0.2 0.8,0.2 z"
         class="st0"
         inkscape:connector-curvature="0"
         style="fill:#635742" />
      <path
         id="path89902"
         d="m 142.5,216.7 c 0,1.4 -0.2,2.7 -0.6,3.9 -0.4,1.2 -1,2.2 -1.8,3 -0.8,0.8 -1.7,1.5 -2.7,1.9 -1.1,0.5 -2.2,0.7 -3.5,0.7 -1.3,0 -2.5,-0.2 -3.5,-0.7 -1.1,-0.5 -2,-1.1 -2.7,-1.9 -0.8,-0.8 -1.4,-1.8 -1.8,-3 -0.4,-1.2 -0.6,-2.5 -0.6,-3.9 0,-1.4 0.2,-2.7 0.6,-3.9 0.4,-1.2 1,-2.2 1.8,-3 0.8,-0.8 1.7,-1.5 2.7,-1.9 1,-0.4 2.2,-0.7 3.5,-0.7 1.3,0 2.4,0.2 3.5,0.7 1.1,0.4 2,1.1 2.7,1.9 0.8,0.8 1.4,1.8 1.8,3 0.4,1.2 0.6,2.5 0.6,3.9 z m -4.3,0 c 0,-1.8 -0.4,-3.2 -1.2,-4.3 -0.8,-1 -1.8,-1.6 -3.2,-1.6 -1.4,0 -2.5,0.5 -3.2,1.6 -0.8,1 -1.2,2.5 -1.2,4.3 0,1.8 0.4,3.3 1.2,4.3 0.8,1.1 1.8,1.6 3.2,1.6 1.4,0 2.5,-0.5 3.2,-1.6 0.9,-1 1.2,-2.5 1.2,-4.3 z"
         class="st0"
         inkscape:connector-curvature="0"
         style="fill:#635742" />
      <path
         id="path89904"
         d="m 151.1,213.2 3.8,-5.5 h 4.4 l -6.1,8.6 c 1.3,1.6 2.5,3.2 3.6,4.8 1.2,1.6 2.1,3.2 2.9,4.6 h -4.5 c -0.2,-0.4 -0.5,-0.9 -0.8,-1.4 -0.3,-0.5 -0.7,-1 -1.1,-1.6 -0.4,-0.5 -0.8,-1.1 -1.2,-1.6 -0.4,-0.5 -0.8,-1 -1.2,-1.5 -0.8,0.9 -1.6,2 -2.4,3.1 -0.8,1.1 -1.4,2.1 -1.9,3 h -4.3 c 0.3,-0.7 0.8,-1.4 1.3,-2.2 0.5,-0.8 1,-1.6 1.6,-2.4 0.6,-0.8 1.2,-1.6 1.8,-2.4 0.6,-0.8 1.2,-1.6 1.8,-2.3 l -6.1,-8.8 h 4.6 z"
         class="st0"
         inkscape:connector-curvature="0"
         style="fill:#635742" />
      <path
         id="path89906"
         d="m 160.9,202.9 4.2,-0.7 v 5.5 h 6.4 v 3.5 h -6.4 v 7.4 c 0,1.4 0.2,2.5 0.7,3.1 0.5,0.6 1.2,0.9 2.3,0.9 0.8,0 1.4,-0.1 2,-0.2 0.6,-0.2 1.1,-0.3 1.4,-0.4 l 0.7,3.3 c -0.5,0.2 -1.1,0.4 -1.9,0.6 -0.8,0.2 -1.7,0.3 -2.8,0.3 -1.3,0 -2.4,-0.2 -3.2,-0.5 -0.9,-0.3 -1.5,-0.8 -2.1,-1.5 -0.5,-0.7 -0.9,-1.5 -1.1,-2.4 -0.2,-0.9 -0.3,-2 -0.3,-3.2 v -15.7 z"
         class="st0"
         inkscape:connector-curvature="0"
         style="fill:#635742" />
      <path
         id="path89908"
         d="m 189.8,216.7 c 0,1.4 -0.2,2.7 -0.6,3.9 -0.4,1.2 -1,2.2 -1.8,3 -0.8,0.8 -1.7,1.5 -2.7,1.9 -1.1,0.5 -2.2,0.7 -3.5,0.7 -1.3,0 -2.5,-0.2 -3.5,-0.7 -1.1,-0.5 -2,-1.1 -2.7,-1.9 -0.8,-0.8 -1.4,-1.8 -1.8,-3 -0.4,-1.2 -0.6,-2.5 -0.6,-3.9 0,-1.4 0.2,-2.7 0.6,-3.9 0.4,-1.2 1,-2.2 1.8,-3 0.8,-0.8 1.7,-1.5 2.7,-1.9 1.1,-0.4 2.2,-0.7 3.5,-0.7 1.3,0 2.4,0.2 3.5,0.7 1.1,0.4 2,1.1 2.7,1.9 0.8,0.8 1.4,1.8 1.8,3 0.3,1.2 0.6,2.5 0.6,3.9 z m -4.3,0 c 0,-1.8 -0.4,-3.2 -1.2,-4.3 -0.8,-1 -1.8,-1.6 -3.2,-1.6 -1.4,0 -2.5,0.5 -3.2,1.6 -0.8,1 -1.2,2.5 -1.2,4.3 0,1.8 0.4,3.3 1.2,4.3 0.8,1.1 1.8,1.6 3.2,1.6 1.4,0 2.5,-0.5 3.2,-1.6 0.8,-1 1.2,-2.5 1.2,-4.3 z"
         class="st0"
         inkscape:connector-curvature="0"
         style="fill:#635742" />
      <path
         id="path89910"
         d="m 208.6,216.7 c 0,1.4 -0.2,2.6 -0.5,3.8 -0.4,1.2 -0.9,2.1 -1.5,3 -0.7,0.8 -1.5,1.5 -2.5,1.9 -1,0.5 -2.1,0.7 -3.4,0.7 -0.9,0 -1.6,-0.1 -2.3,-0.3 -0.7,-0.2 -1.3,-0.4 -1.8,-0.7 v 7 h -4.2 v -23.9 c 0.9,-0.2 1.9,-0.4 3.1,-0.7 1.2,-0.2 2.6,-0.3 3.9,-0.3 1.4,0 2.7,0.2 3.8,0.7 1.1,0.4 2.1,1.1 2.9,1.9 0.8,0.8 1.4,1.8 1.8,3 0.5,1.2 0.7,2.5 0.7,3.9 z m -4.3,0.1 c 0,-1.9 -0.4,-3.3 -1.3,-4.3 -0.8,-1 -2.2,-1.6 -4.1,-1.6 -0.4,0 -0.8,0 -1.2,0.1 -0.4,0 -0.8,0.1 -1.3,0.2 v 10.3 c 0.4,0.3 0.9,0.5 1.5,0.7 0.6,0.2 1.3,0.3 2,0.3 1.5,0 2.6,-0.5 3.3,-1.6 0.8,-0.9 1.1,-2.3 1.1,-4.1 z"
         class="st0"
         inkscape:connector-curvature="0"
         style="fill:#635742" />
    </g>
    <g
       transform="matrix(1.5717942,0,0,1.5717942,18.114084,-164.0768)"
       id="g89942">
      <polygon
         id="polygon89914"
         points="58.9,205.2 65.2,208.9 65.2,197.1 "
         class="st0"
         style="fill:#635742" />
      <polygon
         id="polygon89916"
         points="65.2,208.9 71.5,205.2 65.2,197.1 "
         class="st1"
         style="fill:#b9ab73" />
      <polygon
         id="polygon89918"
         points="57.6,216.2 61.1,210.1 58.1,208.4 53.8,214 "
         class="st0"
         style="fill:#635742" />
      <polygon
         id="polygon89920"
         points="65.2,212.5 61.9,210.6 58.4,216.6 65.2,220.6 "
         class="st0"
         style="fill:#635742" />
      <polygon
         id="polygon89922"
         points="68.3,210.8 71.8,216.8 76.6,214 72.3,208.4 "
         class="st1"
         style="fill:#b9ab73" />
      <polygon
         id="polygon89924"
         points="70.9,217.3 67.4,211.2 65.2,212.5 65.2,220.6 "
         class="st1"
         style="fill:#b9ab73" />
      <polygon
         id="polygon89926"
         points="48,221.6 47.7,221.9 43.2,227.7 49.1,231.1 53,224.5 "
         class="st0"
         style="fill:#635742" />
      <polygon
         id="polygon89928"
         points="53.8,224.9 50,231.6 65.2,240.4 65.2,231.6 "
         class="st0"
         style="fill:#635742" />
      <polygon
         id="polygon89930"
         points="69,229.4 65.2,231.6 65.2,240.4 72.8,236 "
         class="st1"
         style="fill:#b9ab73" />
      <polygon
         id="polygon89932"
         points="73.7,235.5 87.3,227.7 82.8,221.9 82.5,221.6 69.8,228.9 "
         class="st1"
         style="fill:#b9ab73" />
      <polygon
         id="polygon89934"
         points="65.2,230.1 65.2,222 63.1,220.8 59.6,226.8 "
         class="st0"
         style="fill:#635742" />
      <polygon
         id="polygon89936"
         points="58.8,226.4 62.3,220.3 53,215 48.7,220.5 "
         class="st0"
         style="fill:#635742" />
      <polygon
         id="polygon89938"
         points="65.2,230.1 76.2,223.7 72.7,217.7 65.2,222 "
         class="st1"
         style="fill:#b9ab73" />
      <polygon
         id="polygon89940"
         points="73.6,217.2 77.1,223.3 81.8,220.6 77.4,215 "
         class="st1"
         style="fill:#b9ab73" />
    </g>
  </g>
</svg>
