<?xml version="1.0" encoding="UTF-8" standalone="no"?>
<!-- Created with Inkscape (http://www.inkscape.org/) -->

<svg
   xmlns:dc="http://purl.org/dc/elements/1.1/"
   xmlns:cc="http://creativecommons.org/ns#"
   xmlns:rdf="http://www.w3.org/1999/02/22-rdf-syntax-ns#"
   xmlns:svg="http://www.w3.org/2000/svg"
   xmlns="http://www.w3.org/2000/svg"
   xmlns:sodipodi="http://sodipodi.sourceforge.net/DTD/sodipodi-0.dtd"
   xmlns:inkscape="http://www.inkscape.org/namespaces/inkscape"
   width="584.26874"
   height="573.66974"
   viewBox="0 0 154.58777 151.78345"
   version="1.1"
   id="svg8"
   inkscape:version="0.92.2 (5c3e80d, 2017-08-06)"
   sodipodi:docname="icon_black.svg"
   inkscape:export-filename="/home/anxhelo/Files/Design/proxtop/icon_color.png"
   inkscape:export-xdpi="96"
   inkscape:export-ydpi="96">
  <defs
     id="defs2" />
  <sodipodi:namedview
     id="base"
     pagecolor="#ffffff"
     bordercolor="#666666"
     borderopacity="1.0"
     inkscape:pageopacity="0.0"
     inkscape:pageshadow="2"
     inkscape:zoom="0.505625"
     inkscape:cx="254.26106"
     inkscape:cy="75.609678"
     inkscape:document-units="mm"
     inkscape:current-layer="layer1"
     inkscape:document-rotation="0"
     showgrid="false"
     borderlayer="true"
     inkscape:showpageshadow="false"
     units="px"
     inkscape:pagecheckerboard="false"
     showguides="true"
     inkscape:window-width="1366"
     inkscape:window-height="715"
     inkscape:window-x="0"
     inkscape:window-y="0"
     inkscape:window-maximized="1"
     fit-margin-top="0"
     fit-margin-left="0"
     fit-margin-right="0"
     fit-margin-bottom="0">
    <inkscape:grid
       type="xygrid"
       id="grid10"
       originx="-137.29701"
       originy="-102.57883" />
  </sodipodi:namedview>
  <metadata
     id="metadata5">
    <rdf:RDF>
      <cc:Work
         rdf:about="">
        <dc:format>image/svg+xml</dc:format>
        <dc:type
           rdf:resource="http://purl.org/dc/dcmitype/StillImage" />
        <dc:title></dc:title>
      </cc:Work>
    </rdf:RDF>
  </metadata>
  <g
     inkscape:label="Layer 1"
     inkscape:groupmode="layer"
     id="layer1"
     transform="translate(-137.29701,-42.637725)">
    <g
       transform="matrix(3.5053915,0,0,3.5053915,-14.135902,-648.27494)"
       id="g89942"
       style="fill:#000000">
      <polygon
         id="polygon89914"
         points="65.2,208.9 65.2,197.1 58.9,205.2 "
         class="st0"
         style="fill:#000000" />
      <polygon
         id="polygon89916"
         points="71.5,205.2 65.2,197.1 65.2,208.9 "
         class="st1"
         style="fill:#000000" />
      <polygon
         id="polygon89918"
         points="57.6,216.2 61.1,210.1 58.1,208.4 53.8,214 "
         class="st0"
         style="fill:#000000" />
      <polygon
         id="polygon89920"
         points="65.2,212.5 61.9,210.6 58.4,216.6 65.2,220.6 "
         class="st0"
         style="fill:#000000" />
      <polygon
         id="polygon89922"
         points="68.3,210.8 71.8,216.8 76.6,214 72.3,208.4 "
         class="st1"
         style="fill:#000000" />
      <polygon
         id="polygon89924"
         points="70.9,217.3 67.4,211.2 65.2,212.5 65.2,220.6 "
         class="st1"
         style="fill:#000000" />
      <polygon
         id="polygon89926"
         points="53,224.5 48,221.6 47.7,221.9 43.2,227.7 49.1,231.1 "
         class="st0"
         style="fill:#000000" />
      <polygon
         id="polygon89928"
         points="53.8,224.9 50,231.6 65.2,240.4 65.2,231.6 "
         class="st0"
         style="fill:#000000" />
      <polygon
         id="polygon89930"
         points="69,229.4 65.2,231.6 65.2,240.4 72.8,236 "
         class="st1"
         style="fill:#000000" />
      <polygon
         id="polygon89932"
         points="69.8,228.9 73.7,235.5 87.3,227.7 82.8,221.9 82.5,221.6 "
         class="st1"
         style="fill:#000000" />
      <polygon
         id="polygon89934"
         points="65.2,230.1 65.2,222 63.1,220.8 59.6,226.8 "
         class="st0"
         style="fill:#000000" />
      <polygon
         id="polygon89936"
         points="58.8,226.4 62.3,220.3 53,215 48.7,220.5 "
         class="st0"
         style="fill:#000000" />
      <polygon
         id="polygon89938"
         points="65.2,230.1 76.2,223.7 72.7,217.7 65.2,222 "
         class="st1"
         style="fill:#000000" />
      <polygon
         id="polygon89940"
         points="73.6,217.2 77.1,223.3 81.8,220.6 77.4,215 "
         class="st1"
         style="fill:#000000" />
    </g>
  </g>
</svg>
