<?xml version="1.0" encoding="UTF-8" standalone="no"?>
<!-- Created with Inkscape (http://www.inkscape.org/) -->

<svg
   xmlns:dc="http://purl.org/dc/elements/1.1/"
   xmlns:cc="http://creativecommons.org/ns#"
   xmlns:rdf="http://www.w3.org/1999/02/22-rdf-syntax-ns#"
   xmlns:svg="http://www.w3.org/2000/svg"
   xmlns="http://www.w3.org/2000/svg"
   xmlns:sodipodi="http://sodipodi.sourceforge.net/DTD/sodipodi-0.dtd"
   xmlns:inkscape="http://www.inkscape.org/namespaces/inkscape"
   width="825.32977"
   height="705.96991"
   viewBox="0 0 218.3685 186.78787"
   version="1.1"
   id="svg8"
   inkscape:version="0.92.2 (5c3e80d, 2017-08-06)"
   sodipodi:docname="vertical_black.svg"
   inkscape:export-filename="/home/anxhelo/Files/Design/proxtop/vertical_color.png"
   inkscape:export-xdpi="96"
   inkscape:export-ydpi="96">
  <defs
     id="defs2" />
  <sodipodi:namedview
     id="base"
     pagecolor="#ffffff"
     bordercolor="#666666"
     borderopacity="1.0"
     inkscape:pageopacity="0.0"
     inkscape:pageshadow="2"
     inkscape:zoom="0.2528125"
     inkscape:cx="94.472544"
     inkscape:cy="116.84855"
     inkscape:document-units="mm"
     inkscape:current-layer="layer1"
     inkscape:document-rotation="0"
     showgrid="false"
     borderlayer="true"
     inkscape:showpageshadow="false"
     units="px"
     inkscape:pagecheckerboard="false"
     showguides="true"
     inkscape:window-width="1366"
     inkscape:window-height="715"
     inkscape:window-x="0"
     inkscape:window-y="0"
     inkscape:window-maximized="1"
     fit-margin-top="0"
     fit-margin-left="0"
     fit-margin-right="0"
     fit-margin-bottom="0">
    <inkscape:grid
       type="xygrid"
       id="grid10"
       originx="-105.06724"
       originy="-81.920781" />
  </sodipodi:namedview>
  <metadata
     id="metadata5">
    <rdf:RDF>
      <cc:Work
         rdf:about="">
        <dc:format>image/svg+xml</dc:format>
        <dc:type
           rdf:resource="http://purl.org/dc/dcmitype/StillImage" />
        <dc:title></dc:title>
      </cc:Work>
    </rdf:RDF>
  </metadata>
  <g
     inkscape:label="Layer 1"
     inkscape:groupmode="layer"
     id="layer1"
     transform="translate(-105.06724,-28.29135)">
    <g
       id="g179888"
       transform="matrix(2.138024,0,0,2.138024,-138.5884,-142.95592)"
       style="fill:#000000">
      <g
         id="g89866"
         transform="matrix(0.90066725,0,0,0.90066725,48.394429,35.422951)"
         style="fill:#000000">
        <path
           style="fill:#000000"
           inkscape:connector-curvature="0"
           class="st0"
           d="m 89,131.2 c 0,1.4 -0.2,2.6 -0.5,3.8 -0.4,1.2 -0.9,2.1 -1.5,3 -0.7,0.8 -1.5,1.5 -2.5,1.9 -1,0.5 -2.1,0.7 -3.4,0.7 -0.9,0 -1.6,-0.1 -2.3,-0.3 -0.7,-0.2 -1.3,-0.4 -1.8,-0.7 v 7 h -4.2 v -23.9 c 0.9,-0.2 1.9,-0.4 3.1,-0.7 1.2,-0.2 2.6,-0.3 3.9,-0.3 1.4,0 2.7,0.2 3.8,0.7 1.1,0.4 2.1,1.1 2.9,1.9 0.8,0.8 1.4,1.8 1.8,3 0.5,1.1 0.7,2.4 0.7,3.9 z m -4.3,0 c 0,-1.9 -0.4,-3.3 -1.3,-4.3 -0.8,-1 -2.2,-1.6 -4.1,-1.6 -0.4,0 -0.8,0 -1.2,0.1 -0.4,0 -0.8,0.1 -1.3,0.2 v 10.3 c 0.4,0.3 0.9,0.5 1.5,0.7 0.6,0.2 1.3,0.3 2,0.3 1.5,0 2.6,-0.5 3.3,-1.6 0.8,-0.9 1.1,-2.3 1.1,-4.1 z"
           id="path89852" />
        <path
           style="fill:#000000"
           inkscape:connector-curvature="0"
           class="st0"
           d="m 101.9,125.9 c -0.3,-0.1 -0.8,-0.2 -1.4,-0.4 -0.6,-0.1 -1.3,-0.2 -2.1,-0.2 -0.5,0 -1,0 -1.5,0.1 -0.5,0.1 -0.9,0.2 -1.1,0.2 v 14.5 H 91.6 V 123 c 0.8,-0.3 1.8,-0.6 3,-0.8 1.2,-0.3 2.5,-0.4 4,-0.4 0.3,0 0.6,0 1,0.1 0.4,0.1 0.7,0.1 1.1,0.1 0.4,0.1 0.7,0.1 1.1,0.2 0.3,0.1 0.6,0.2 0.8,0.2 z"
           id="path89854" />
        <path
           style="fill:#000000"
           inkscape:connector-curvature="0"
           class="st0"
           d="m 120.1,131.1 c 0,1.4 -0.2,2.7 -0.6,3.9 -0.4,1.2 -1,2.2 -1.8,3 -0.8,0.8 -1.7,1.5 -2.7,1.9 -1.1,0.5 -2.2,0.7 -3.5,0.7 -1.3,0 -2.5,-0.2 -3.5,-0.7 -1.1,-0.5 -2,-1.1 -2.7,-1.9 -0.8,-0.8 -1.4,-1.8 -1.8,-3 -0.4,-1.2 -0.6,-2.5 -0.6,-3.9 0,-1.4 0.2,-2.7 0.6,-3.9 0.4,-1.2 1,-2.2 1.8,-3 0.8,-0.8 1.7,-1.5 2.7,-1.9 1.1,-0.4 2.2,-0.7 3.5,-0.7 1.3,0 2.4,0.2 3.5,0.7 1.1,0.4 2,1.1 2.7,1.9 0.8,0.8 1.4,1.8 1.8,3 0.4,1.2 0.6,2.5 0.6,3.9 z m -4.3,0 c 0,-1.8 -0.4,-3.2 -1.2,-4.3 -0.8,-1 -1.8,-1.6 -3.2,-1.6 -1.4,0 -2.5,0.5 -3.2,1.6 -0.8,1 -1.2,2.5 -1.2,4.3 0,1.8 0.4,3.3 1.2,4.3 0.8,1 1.8,1.6 3.2,1.6 1.4,0 2.5,-0.5 3.2,-1.6 0.7,-1.1 1.2,-2.4 1.2,-4.3 z"
           id="path89856" />
        <path
           style="fill:#000000"
           inkscape:connector-curvature="0"
           class="st0"
           d="m 128.7,127.7 3.8,-5.5 h 4.4 l -6.1,8.6 c 1.3,1.6 2.5,3.2 3.6,4.8 1.2,1.6 2.1,3.2 2.9,4.6 h -4.5 c -0.2,-0.4 -0.5,-0.9 -0.8,-1.4 -0.3,-0.5 -0.7,-1 -1.1,-1.6 -0.4,-0.5 -0.8,-1.1 -1.2,-1.6 -0.4,-0.5 -0.8,-1 -1.2,-1.5 -0.8,0.9 -1.6,2 -2.4,3.1 -0.8,1.1 -1.4,2.1 -1.9,3 H 120 c 0.3,-0.7 0.8,-1.4 1.3,-2.2 0.5,-0.8 1,-1.6 1.6,-2.4 0.6,-0.8 1.2,-1.6 1.8,-2.4 0.6,-0.8 1.2,-1.6 1.8,-2.3 l -6.1,-8.8 h 4.6 z"
           id="path89858" />
        <path
           style="fill:#000000"
           inkscape:connector-curvature="0"
           class="st0"
           d="m 138.5,117.4 4.2,-0.7 v 5.5 h 6.4 v 3.5 h -6.4 v 7.4 c 0,1.4 0.2,2.5 0.7,3.1 0.5,0.6 1.2,0.9 2.3,0.9 0.8,0 1.4,-0.1 2,-0.2 0.6,-0.2 1.1,-0.3 1.4,-0.4 l 0.7,3.3 c -0.5,0.2 -1.1,0.4 -1.9,0.6 -0.8,0.2 -1.7,0.3 -2.8,0.3 -1.3,0 -2.4,-0.2 -3.2,-0.5 -0.9,-0.3 -1.5,-0.8 -2.1,-1.5 -0.5,-0.7 -0.9,-1.5 -1.1,-2.4 -0.2,-0.9 -0.3,-2 -0.3,-3.2 v -15.7 z"
           id="path89860" />
        <path
           style="fill:#000000"
           inkscape:connector-curvature="0"
           class="st0"
           d="m 167.3,131.1 c 0,1.4 -0.2,2.7 -0.6,3.9 -0.4,1.2 -1,2.2 -1.8,3 -0.8,0.8 -1.7,1.5 -2.7,1.9 -1.1,0.5 -2.2,0.7 -3.5,0.7 -1.3,0 -2.5,-0.2 -3.5,-0.7 -1.1,-0.5 -2,-1.1 -2.7,-1.9 -0.8,-0.8 -1.4,-1.8 -1.8,-3 -0.4,-1.2 -0.6,-2.5 -0.6,-3.9 0,-1.4 0.2,-2.7 0.6,-3.9 0.4,-1.2 1,-2.2 1.8,-3 0.8,-0.8 1.7,-1.5 2.7,-1.9 1.1,-0.4 2.2,-0.7 3.5,-0.7 1.3,0 2.4,0.2 3.5,0.7 1.1,0.4 2,1.1 2.7,1.9 0.8,0.8 1.4,1.8 1.8,3 0.4,1.2 0.6,2.5 0.6,3.9 z m -4.2,0 c 0,-1.8 -0.4,-3.2 -1.2,-4.3 -0.8,-1 -1.8,-1.6 -3.2,-1.6 -1.4,0 -2.5,0.5 -3.2,1.6 -0.8,1 -1.2,2.5 -1.2,4.3 0,1.8 0.4,3.3 1.2,4.3 0.8,1 1.8,1.6 3.2,1.6 1.4,0 2.5,-0.5 3.2,-1.6 0.7,-1.1 1.2,-2.4 1.2,-4.3 z"
           id="path89862" />
        <path
           style="fill:#000000"
           inkscape:connector-curvature="0"
           class="st0"
           d="m 186.2,131.2 c 0,1.4 -0.2,2.6 -0.5,3.8 -0.4,1.2 -0.9,2.1 -1.5,3 -0.7,0.8 -1.5,1.5 -2.5,1.9 -1,0.5 -2.1,0.7 -3.4,0.7 -0.9,0 -1.6,-0.1 -2.3,-0.3 -0.7,-0.2 -1.3,-0.4 -1.8,-0.7 v 7 H 170 v -23.9 c 0.9,-0.2 1.9,-0.4 3.1,-0.7 1.2,-0.2 2.6,-0.3 3.9,-0.3 1.4,0 2.7,0.2 3.8,0.7 1.1,0.4 2.1,1.1 2.9,1.9 0.8,0.8 1.4,1.8 1.8,3 0.5,1.1 0.7,2.4 0.7,3.9 z m -4.3,0 c 0,-1.9 -0.4,-3.3 -1.3,-4.3 -0.8,-1 -2.2,-1.6 -4.1,-1.6 -0.4,0 -0.8,0 -1.2,0.1 -0.4,0 -0.8,0.1 -1.3,0.2 v 10.3 c 0.4,0.3 0.9,0.5 1.5,0.7 0.6,0.2 1.3,0.3 2,0.3 1.5,0 2.6,-0.5 3.3,-1.6 0.8,-0.9 1.1,-2.3 1.1,-4.1 z"
           id="path89864" />
      </g>
      <g
         id="g89896"
         transform="matrix(0.90066725,0,0,0.90066725,48.394429,35.422951)"
         style="fill:#000000">
        <polygon
           style="fill:#000000"
           class="st0"
           points="129.4,65.6 129.4,49.6 120.8,60.7 "
           id="polygon89868" />
        <polygon
           style="fill:#000000"
           class="st1"
           points="138,60.7 129.4,49.6 129.4,65.6 "
           id="polygon89870" />
        <polygon
           style="fill:#000000"
           class="st0"
           points="123.7,67.4 119.7,65.1 113.8,72.6 119,75.6 "
           id="polygon89872" />
        <polygon
           style="fill:#000000"
           class="st0"
           points="124.8,68 120.1,76.3 129.4,81.6 129.4,70.6 "
           id="polygon89874" />
        <polygon
           style="fill:#000000"
           class="st1"
           points="138.3,76.5 144.9,72.6 139,65.1 133.5,68.2 "
           id="polygon89876" />
        <polygon
           style="fill:#000000"
           class="st1"
           points="132.4,68.9 129.4,70.6 129.4,81.6 137.1,77.1 "
           id="polygon89878" />
        <polygon
           style="fill:#000000"
           class="st0"
           points="105.4,83.4 99.3,91.3 107.4,96 112.6,86.9 105.8,83 "
           id="polygon89880" />
        <polygon
           style="fill:#000000"
           class="st0"
           points="108.5,96.6 129.4,108.6 129.4,96.6 113.8,87.6 "
           id="polygon89882" />
        <polygon
           style="fill:#000000"
           class="st1"
           points="129.4,96.6 129.4,108.6 139.7,102.7 134.5,93.6 "
           id="polygon89884" />
        <polygon
           style="fill:#000000"
           class="st1"
           points="159.5,91.3 153.3,83.4 153,83 135.7,93 140.9,102 "
           id="polygon89886" />
        <polygon
           style="fill:#000000"
           class="st0"
           points="129.4,83.6 126.5,81.9 121.7,90.2 129.4,94.6 "
           id="polygon89888" />
        <polygon
           style="fill:#000000"
           class="st0"
           points="125.3,81.3 112.7,74 106.8,81.6 120.6,89.5 "
           id="polygon89890" />
        <polygon
           style="fill:#000000"
           class="st1"
           points="144.4,85.9 139.6,77.7 129.4,83.6 129.4,94.6 "
           id="polygon89892" />
        <polygon
           style="fill:#000000"
           class="st1"
           points="145.5,85.3 151.9,81.6 146,74 140.8,77 "
           id="polygon89894" />
      </g>
    </g>
  </g>
</svg>
